<svg xmlns="http://www.w3.org/2000/svg" version="1.1" xmlns:xlink="http://www.w3.org/1999/xlink" xmlns:svgjs="http://svgjs.com/svgjs" width="508" height="383"><svg width="508" height="383" viewBox="0 0 508 383" fill="none" xmlns="http://www.w3.org/2000/svg">
<path d="M254.876 375C198.876 375 135.876 361 109.876 337C38.3455 281.147 74.3553 193.129 75.8338 189.609C75.873 189.516 75.8958 189.464 75.9305 189.385L75.9532 189.333L92.8593 150.743C96.8316 141.676 98.9182 131.895 98.9924 121.997L99.7936 15.0356C99.8293 10.2793 105.121 7.45353 109.093 10.0695L166.011 47.5499C175.872 54.044 188.409 54.9232 199.732 51.5733C213.024 47.6406 232.657 43.4564 254.876 44C277.38 44.5505 297.533 48.7379 311.104 52.391C322.402 55.4321 334.688 54.1731 344.459 47.7386L403.199 9.05788C406.51 6.87794 410.919 9.23272 410.949 13.1963L411.788 125.282C411.846 132.96 413.932 140.475 417.406 147.323C422.301 156.974 429.486 172.43 434.876 189.5C443.876 218 456.88 299 400.88 337C344.88 375 310.876 375 254.876 375Z" fill="#1FA1F1" stroke="#1FA1F1" stroke-width="15"></path>
<line x1="440.38" y1="203.973" x2="499.38" y2="181.973" stroke="#1FA1F1" stroke-width="15"></line>
<line x1="445.372" y1="280.885" x2="499.372" y2="298.885" stroke="#1FA1F1" stroke-width="15"></line>
<line x1="443.532" y1="244.515" x2="507.532" y2="240.515" stroke="#1FA1F1" stroke-width="15"></line>
<line y1="-7.5" x2="62.9682" y2="-7.5" transform="matrix(-0.93698 -0.349383 -0.349382 0.93698 65 202)" stroke="#1FA1F1" stroke-width="15"></line>
<line y1="-7.5" x2="56.921" y2="-7.5" transform="matrix(-0.948683 0.316228 0.316228 0.948683 65 279)" stroke="#1FA1F1" stroke-width="15"></line>
<line y1="-7.5" x2="64.1249" y2="-7.5" transform="matrix(-0.998053 -0.0623783 -0.0623783 0.998053 64 243)" stroke="#1FA1F1" stroke-width="15"></line>
</svg><style>@media (prefers-color-scheme: light) { :root { filter: none; } }
</style></svg>