<svg width="35" height="36" viewBox="0 0 35 36" fill="blue" xmlns="http://www.w3.org/2000/svg">
<path d="M31.0625 0H3.9375C1.7675 0 0 1.80958 0 4.03125V31.8021C0 34.0237 1.7675 35.8333 3.9375 35.8333H31.0625C33.2325 35.8333 35 34.0237 35 31.8021V4.03125C35 1.80958 33.2325 0 31.0625 0ZM3.9375 2.6875H31.0625C31.7852 2.6875 32.375 3.29129 32.375 4.03125V21.3674L25.6235 14.4552C25.3785 14.2043 25.046 14.061 24.696 14.061H24.6907C24.3407 14.061 24.003 14.2043 23.7597 14.4623L16.205 22.317L13.0322 19.0812C12.7872 18.8304 12.4547 18.6871 12.1047 18.6871C11.767 18.6333 11.4135 18.8304 11.1685 19.0938L2.625 28.0252V4.03125C2.625 3.29129 3.21475 2.6875 3.9375 2.6875ZM2.6355 31.8558L12.117 21.9408L23.1105 33.1458H3.9375C3.234 33.1458 2.66525 32.5689 2.6355 31.8558ZM31.0625 33.1458H26.8275L18.0652 24.2108L24.7012 17.3129L32.375 25.1675V31.8021C32.375 32.542 31.7852 33.1458 31.0625 33.1458Z" fill="#1D9BF0"/>
<path d="M12.019 14.0664C13.5093 14.0664 14.7175 12.8294 14.7175 11.3036C14.7175 9.7778 13.5093 8.54087 12.019 8.54087C10.5287 8.54087 9.3205 9.7778 9.3205 11.3036C9.3205 12.8294 10.5287 14.0664 12.019 14.0664Z" fill="#1D9BF0"/>
</svg>
