<svg width="74" height="73" viewBox="0 0 74 73" fill="none" xmlns="http://www.w3.org/2000/svg">
<path fill-rule="evenodd" clip-rule="evenodd" d="M37 0C16.5575 0 0 16.5575 0 37C0 53.3725 10.5912 67.2013 25.2987 72.1038C27.1487 72.4275 27.8425 71.3175 27.8425 70.3463C27.8425 69.4675 27.7963 66.5538 27.7963 63.455C18.5 65.1663 16.095 61.1887 15.355 59.1075C14.9387 58.0437 13.135 54.76 11.5625 53.8812C10.2675 53.1875 8.4175 51.4762 11.5163 51.43C14.43 51.3837 16.5113 54.1125 17.205 55.2225C20.535 60.8187 25.8538 59.2463 27.9813 58.275C28.305 55.87 29.2762 54.2512 30.34 53.3262C22.1075 52.4012 13.505 49.21 13.505 35.0575C13.505 31.0337 14.9388 27.7037 17.2975 25.1137C16.9275 24.1887 15.6325 20.3962 17.6675 15.3087C17.6675 15.3087 20.7663 14.3375 27.8425 19.1013C30.8025 18.2688 33.9475 17.8525 37.0925 17.8525C40.2375 17.8525 43.3825 18.2688 46.3425 19.1013C53.4188 14.2913 56.5175 15.3087 56.5175 15.3087C58.5525 20.3962 57.2575 24.1887 56.8875 25.1137C59.2463 27.7037 60.68 30.9875 60.68 35.0575C60.68 49.2562 52.0313 52.4012 43.7988 53.3262C45.14 54.4825 46.2963 56.7025 46.2963 60.1713C46.2963 65.12 46.25 69.0975 46.25 70.3463C46.25 71.3175 46.9438 72.4738 48.7938 72.1038C56.1389 69.6241 62.5216 64.9034 67.0433 58.6063C71.5649 52.3091 73.998 44.7524 74 37C74 16.5575 57.4425 0 37 0Z" fill="white"/>
</svg>
