<svg width="247" height="247" viewBox="0 0 247 247" fill="none" xmlns="http://www.w3.org/2000/svg">
<path d="M232.386 75.6438L128.389 19.5233C125.332 17.8766 121.658 17.8766 118.611 19.5233L14.6656 75.6438C9.66387 78.3608 7.80108 84.5975 10.4975 89.5993C12.35 93.047 15.9006 95.0024 19.5542 95.0024C21.2008 95.0024 22.8887 94.6113 24.4427 93.7674L31.9968 89.6919L48.3605 205.473C50.5835 217.967 61.8426 226.695 75.7364 226.695H171.264C185.157 226.695 196.416 217.967 198.66 205.206L215.003 89.6816L222.588 93.7777C227.58 96.4844 233.827 94.6216 236.523 89.6198C239.23 84.6181 237.346 78.371 232.365 75.6746L232.386 75.6438ZM123.5 158.852C105.026 158.852 90.0521 143.878 90.0521 125.404C90.0521 106.93 105.026 91.956 123.5 91.956C141.974 91.956 156.948 106.93 156.948 125.404C156.948 143.878 141.974 158.852 123.5 158.852Z" fill="white"/>
</svg>
