<svg width="77" height="77" viewBox="0 0 77 77" fill="none" xmlns="http://www.w3.org/2000/svg">
<path d="M70.9167 0H5.75C4.22501 0 2.76247 0.605802 1.68414 1.68414C0.605802 2.76247 0 4.22501 0 5.75V70.9167C0 72.4417 0.605802 73.9042 1.68414 74.9825C2.76247 76.0609 4.22501 76.6667 5.75 76.6667H70.9167C72.4417 76.6667 73.9042 76.0609 74.9825 74.9825C76.0609 73.9042 76.6667 72.4417 76.6667 70.9167V5.75C76.6667 4.22501 76.0609 2.76247 74.9825 1.68414C73.9042 0.605802 72.4417 0 70.9167 0V0ZM23 65.1667H11.5V30.6667H23V65.1667ZM17.25 23.9583C15.932 23.9207 14.6544 23.4954 13.5767 22.7358C12.499 21.9761 11.6691 20.9158 11.1906 19.6871C10.7122 18.4585 10.6064 17.1161 10.8864 15.8277C11.1665 14.5393 11.8201 13.362 12.7654 12.4429C13.7108 11.5238 14.906 10.9037 16.2018 10.66C17.4976 10.4163 18.8365 10.5599 20.0512 11.0727C21.2658 11.5856 22.3024 12.4451 23.0314 13.5437C23.7604 14.6424 24.1495 15.9315 24.15 17.25C24.1197 19.053 23.377 20.7707 22.084 22.0277C20.7911 23.2848 19.0531 23.9788 17.25 23.9583V23.9583ZM65.1667 65.1667H53.6667V46.9967C53.6667 41.5533 51.3667 39.5983 48.3767 39.5983C47.5 39.6567 46.6435 39.8877 45.8564 40.278C45.0693 40.6683 44.3671 41.2103 43.79 41.8729C43.213 42.5354 42.7725 43.3054 42.4939 44.1386C42.2154 44.9719 42.1041 45.852 42.1667 46.7283C42.1476 46.9067 42.1476 47.0866 42.1667 47.265V65.1667H30.6667V30.6667H41.7833V35.65C42.9047 33.9442 44.4453 32.5549 46.2576 31.6152C48.0698 30.6755 50.093 30.2169 52.1333 30.2833C58.075 30.2833 65.0133 33.58 65.0133 44.3133L65.1667 65.1667Z" fill="white"/>
</svg>
