<svg width="560" height="565" viewBox="0 0 560 565" fill="none" xmlns="http://www.w3.org/2000/svg">
<path d="M280 560C434.64 560 560 434.64 560 280C560 125.36 434.64 0 280 0C125.36 0 0 125.36 0 280C0 434.64 125.36 560 280 560Z" fill="white"/>
<path d="M280 325C343.513 325 395 273.513 395 210C395 146.487 343.513 95 280 95C216.487 95 165 146.487 165 210C165 273.513 216.487 325 280 325Z" fill="black"/>
<path d="M280 564.691C359 569.791 485 511.034 485 444.845C485 378.657 393.218 325 280 325C166.782 325 75 378.657 75 444.845C75 511.034 190 564.691 280 564.691Z" fill="black"/>
</svg>
