<svg width="556" height="387" viewBox="0 0 556 387" fill="none" xmlns="http://www.w3.org/2000/svg">
<path d="M214.561 161.01C219.15 164.838 222.134 170.526 222.134 176.974C222.134 188.495 212.796 197.834 201.27 197.834C189.75 197.834 180.406 188.496 180.406 176.974C180.406 176.255 180.547 175.573 180.62 174.87C180.386 174.875 180.172 174.896 179.938 174.896C176.135 174.896 171.995 174.568 167.485 173.818C162.328 172.959 158.839 168.078 159.698 162.917C160.557 157.761 165.453 154.261 170.599 155.13C193.006 158.86 200.193 148.781 200.49 148.349C203.396 144.125 209.209 142.849 213.511 145.625C217.813 148.396 219.219 153.969 216.573 158.354C216.459 158.537 215.808 159.563 214.563 161.011L214.561 161.01ZM375.268 176.969C375.268 176.25 375.127 175.568 375.055 174.865C375.289 174.87 375.502 174.891 375.737 174.891C379.534 174.891 383.68 174.563 388.185 173.813C393.346 172.953 396.831 168.073 395.971 162.911C395.112 157.755 390.174 154.25 385.075 155.125C363.065 158.792 355.715 149.104 355.201 148.375C352.451 144.031 346.716 142.693 342.32 145.344C337.836 148.047 336.398 153.87 339.101 158.349C339.211 158.531 339.862 159.557 341.107 161.005C336.518 164.833 333.534 170.521 333.534 176.964C333.534 188.485 342.872 197.824 354.394 197.824C365.93 197.834 375.268 188.491 375.268 176.969L375.268 176.969ZM555.495 279.442C554.594 283.947 550.641 287.072 546.214 287.072C545.599 287.072 544.979 287.015 544.359 286.895L487.433 275.593C458.569 339.948 375.547 386.582 277.846 386.582C180.138 386.582 97.1128 339.947 68.2461 275.588L11.3194 286.89C10.6944 287.015 10.0746 287.067 9.46529 287.067C5.03822 287.067 1.07981 283.947 0.184076 279.437C-0.836751 274.306 2.50182 269.322 7.63195 268.301L61.6946 257.567C58.8353 247.244 57.3249 236.578 57.3249 225.65C57.3249 219.806 57.9134 213.998 58.7676 208.218L7.63154 198.061C2.50128 197.046 -0.837265 192.056 0.183669 186.926C1.2045 181.801 6.17848 178.473 11.3191 179.478L62.8925 189.718C64.205 185.52 65.7154 181.353 67.4914 177.233C69.2674 162.812 73.3039 148.462 79.5018 134.572C81.3925 130.337 82.2988 125.416 82.1893 119.947L80.283 25.1398C80.1216 17.1658 83.6789 9.82783 90.0382 5.0145C96.3923 0.207163 104.429 -1.24071 112.049 1.09262L206.789 29.8846C252.726 16.254 302.961 16.2593 348.882 29.8794L443.617 1.09274C451.258 -1.23019 459.262 0.196925 465.633 5.01462C471.992 9.82715 475.55 17.1605 475.393 25.1399L473.487 119.963C473.378 125.431 474.279 130.348 476.169 134.583C482.362 148.452 486.398 162.796 488.195 177.239C489.966 181.364 491.476 185.53 492.784 189.723L544.352 179.483C549.435 178.468 554.456 181.791 555.487 186.931C556.503 192.062 553.17 197.046 548.039 198.067L496.899 208.223C497.759 214.004 498.342 219.812 498.342 225.655C498.342 236.582 496.827 247.254 493.972 257.572L548.04 268.307C553.171 269.328 556.504 274.312 555.488 279.442L555.495 279.442ZM479.407 225.65C479.407 221.051 478.969 216.473 478.334 211.91L437.209 220.077C436.584 220.202 435.969 220.254 435.354 220.254C430.927 220.254 426.974 217.134 426.073 212.624C425.058 207.493 428.391 202.509 433.521 201.488L474.084 193.436C472.98 190.123 471.735 186.832 470.292 183.571C469.901 182.691 469.651 181.764 469.547 180.806C468.073 167.811 464.479 154.853 458.875 142.301C455.839 135.498 454.386 127.853 454.552 119.577L456.459 24.7592C456.506 22.2436 455.073 20.7748 454.209 20.1185C453.344 19.4675 451.537 18.4882 449.141 19.2175L351.657 48.8428C349.844 49.4001 347.912 49.3897 346.1 48.8324C302.084 35.2017 253.61 35.207 209.593 48.8376C207.786 49.3949 205.848 49.4053 204.036 48.848L106.546 19.2227C105.942 19.0404 105.374 18.9623 104.854 18.9623C103.291 18.9623 102.119 19.6393 101.473 20.1237C100.609 20.7747 99.1712 22.2488 99.2233 24.7644L101.13 119.571C101.291 127.857 99.8379 135.498 96.8014 142.295C91.1921 154.873 87.6088 167.831 86.1452 180.806C86.0358 181.764 85.7806 182.702 85.3952 183.582C83.9525 186.842 82.7025 190.129 81.5982 193.441L122.161 201.493C127.291 202.519 130.63 207.498 129.609 212.629C128.713 217.134 124.755 220.259 120.328 220.259C119.718 220.259 119.098 220.202 118.473 220.082L77.3428 211.915C76.7074 216.478 76.2699 221.061 76.2699 225.661C76.2699 235.322 77.6605 244.765 80.2855 253.89L118.473 246.307C123.614 245.307 128.588 248.624 129.609 253.754C130.63 258.885 127.291 263.869 122.161 264.89L87.265 271.817C114.53 327.51 189.634 367.645 277.838 367.645C366.041 367.645 441.145 327.509 468.412 271.817L433.521 264.89C428.391 263.864 425.052 258.885 426.073 253.754C427.099 248.619 432.136 245.312 437.209 246.307L475.391 253.89C478.016 244.754 479.402 235.317 479.402 225.65L479.407 225.65ZM319.287 276.577H319.151C307.834 276.842 299.542 273.967 294.313 268.342C291.5 265.322 289.839 261.743 288.813 258.348L310.839 228.78C313.298 225.457 313.683 221.035 311.845 217.337C309.985 213.629 306.204 211.301 302.058 211.301L253.61 211.311C249.464 211.311 245.683 213.639 243.824 217.347C241.985 221.045 242.371 225.467 244.829 228.79L266.856 258.353C265.83 261.754 264.173 265.332 261.361 268.353C256.126 273.978 247.71 276.801 236.522 276.587C231.298 276.42 226.991 280.696 226.913 285.926C226.84 291.155 231.022 295.457 236.251 295.535C236.652 295.54 237.048 295.54 237.449 295.54C253.813 295.54 266.58 290.681 275.403 281.081C276.278 280.128 277.09 279.154 277.84 278.16C278.595 279.154 279.403 280.128 280.278 281.081C289.1 290.68 301.862 295.54 318.231 295.54C318.627 295.54 319.028 295.54 319.429 295.535C324.658 295.462 328.84 291.155 328.767 285.926C328.684 280.728 324.46 276.577 319.288 276.577L319.287 276.577ZM394.276 199.118C399.62 206.41 426.276 243.754 426.276 262.561C426.276 284.415 408.489 302.197 386.64 302.197C364.785 302.197 347.004 284.41 347.004 262.561C347.004 243.754 373.655 206.41 379.004 199.118C382.556 194.248 390.707 194.248 394.275 199.118H394.276ZM407.328 262.561C407.328 255.748 397.599 237.758 386.635 221.274C375.671 237.769 365.942 255.758 365.942 262.561C365.942 273.972 375.223 283.254 386.635 283.254C398.046 283.259 407.328 273.978 407.328 262.561Z" fill="white"/>
</svg>
