<svg width="136" height="96" viewBox="0 0 136 96" fill="none" xmlns="http://www.w3.org/2000/svg">
<path d="M4.75417 42.7875L0 47.5417L4.75417 52.2958L31.9208 79.4625C34.6375 82.1792 38.7125 82.1792 41.4292 79.4625C44.1458 76.7458 44.1458 72.6708 41.4292 69.9542L25.8083 54.3333H88.2917C92.3667 54.3333 95.0833 51.6167 95.0833 47.5417C95.0833 43.4667 92.3667 40.75 88.2917 40.75H25.8083L41.4292 25.1292C42.7875 23.7708 43.4667 22.4125 43.4667 20.375C43.4667 16.3 40.75 13.5833 36.675 13.5833C34.6375 13.5833 33.2792 14.2625 31.9208 15.6208L4.75417 42.7875V42.7875Z" fill="white"/>
<path d="M135.833 95.0833H54.3333V81.5H122.25V13.5833H54.3333V0H135.833V95.0833Z" fill="white"/>
</svg>
