<svg width="33" height="8" viewBox="0 0 33 8" fill="none" xmlns="http://www.w3.org/2000/svg">
<path d="M3.968 0C1.775 0 0 1.774 0 3.966C0 6.158 1.773 7.933 3.968 7.933C6.157 7.933 7.934 6.161 7.934 3.966C7.934 1.774 6.157 0 3.968 0ZM16.233 0C14.045 0 12.265 1.773 12.265 3.965C12.265 6.157 14.043 7.932 16.233 7.932C18.423 7.932 20.203 6.16 20.203 3.965C20.201 1.774 18.423 0 16.233 0ZM28.09 0C25.898 0 24.121 1.774 24.121 3.967C24.121 6.157 25.895 7.932 28.09 7.932C30.278 7.932 32.055 6.16 32.055 3.967C32.055 1.774 30.278 0 28.09 0Z" fill="#808080"/>
</svg>
